<svg width="574" height="185" viewBox="0 0 574 185" fill="none" xmlns="http://www.w3.org/2000/svg">
<g clip-path="url(#clip0_1015_2839)">
<path d="M27.5523 125.643H78.3664V139.572H0L48.4184 66.0529H3.37096V52.1236H76.1378L27.5523 125.643Z" fill="#7000FF"/>
<path d="M103.857 37.0241C103.841 35.0186 104.419 33.0533 105.52 31.3766C106.62 29.6999 108.193 28.3872 110.04 27.6045C111.886 26.8218 113.923 26.6042 115.893 26.9793C117.864 27.3543 119.678 28.3052 121.108 29.7116C122.538 31.118 123.519 32.9169 123.926 34.8806C124.334 36.8444 124.15 38.8848 123.397 40.744C122.645 42.6032 121.359 44.1976 119.7 45.3256C118.042 46.4536 116.087 47.0645 114.081 47.0811C111.394 47.096 108.81 46.0465 106.894 44.162C104.978 42.2775 103.886 39.7113 103.857 37.0241ZM81.375 52.1235H96.5022L135.504 139.6H120.433L81.375 52.1235Z" fill="#7000FF"/>
<path d="M233.233 95.9731C233.233 121.046 212.952 141.411 189.495 141.411C183.384 141.594 177.308 140.42 171.706 137.973C166.103 135.525 161.113 131.866 157.095 127.258V184.285H141.829V52.1236H157.095V64.6042C161.113 59.9964 166.103 56.3372 171.706 53.89C177.308 51.4428 183.384 50.2686 189.495 50.4521C212.952 50.4521 233.233 70.7332 233.233 95.9731ZM217.966 95.9731C217.928 89.9675 216.114 84.1075 212.753 79.1301C209.393 74.1527 204.635 70.2802 199.08 67.9998C193.524 65.7193 187.417 65.1327 181.529 66.3138C175.641 67.495 170.233 70.391 165.986 74.6377C161.74 78.8844 158.844 84.292 157.663 90.1804C156.481 96.0688 157.068 102.175 159.348 107.731C161.629 113.287 165.501 118.044 170.479 121.405C175.456 124.765 181.316 126.579 187.322 126.618C191.353 126.644 195.35 125.869 199.08 124.338C202.809 122.807 206.198 120.551 209.049 117.7C211.899 114.849 214.156 111.46 215.686 107.731C217.217 104.001 217.992 100.005 217.966 95.9731Z" fill="black"/>
<path d="M346.033 95.9731C346.033 121.046 325.724 141.411 302.267 141.411C296.16 141.59 290.09 140.414 284.493 137.967C278.896 135.52 273.91 131.863 269.895 127.258V139.711H254.628V0H269.895V64.6042C273.91 60.0001 278.896 56.343 284.493 53.896C290.09 51.4489 296.16 50.2728 302.267 50.452C325.724 50.452 346.033 70.7331 346.033 95.9731ZM330.766 95.9731C330.728 89.9675 328.914 84.1075 325.553 79.1301C322.193 74.1527 317.435 70.2802 311.879 67.9997C306.323 65.7193 300.217 65.1327 294.329 66.3138C288.44 67.4949 283.033 70.391 278.786 74.6377C274.539 78.8843 271.643 84.292 270.462 90.1804C269.281 96.0688 269.868 102.175 272.148 107.731C274.429 113.287 278.301 118.044 283.279 121.405C288.256 124.765 294.116 126.579 300.122 126.618C304.153 126.644 308.15 125.869 311.879 124.338C315.609 122.807 318.998 120.551 321.848 117.7C324.699 114.849 326.955 111.46 328.486 107.731C330.017 104.001 330.792 100.005 330.766 95.9731Z" fill="black"/>
<path d="M346.005 95.9731C345.927 86.9187 348.541 78.0453 353.513 70.478C358.486 62.9108 365.593 56.9906 373.935 53.4681C382.276 49.9457 391.476 48.9796 400.367 50.6925C409.259 52.4054 417.441 56.7201 423.877 63.0895C430.313 69.4588 434.712 77.5958 436.517 86.4688C438.322 95.3418 437.452 104.551 434.017 112.929C430.581 121.306 424.735 128.475 417.22 133.526C409.705 138.577 400.859 141.282 391.804 141.299C385.816 141.347 379.878 140.211 374.331 137.955C368.783 135.7 363.736 132.371 359.48 128.159C355.224 123.947 351.842 118.935 349.53 113.411C347.217 107.887 346.019 101.961 346.005 95.9731ZM422.142 95.9731C422.104 89.9545 420.282 84.0823 416.908 79.0982C413.534 74.1142 408.759 70.2419 403.185 67.9704C397.611 65.699 391.49 65.1303 385.593 66.3362C379.696 67.5421 374.289 70.4685 370.054 74.7458C365.82 79.023 362.948 84.4592 361.801 90.3677C360.655 96.2762 361.285 102.392 363.613 107.943C365.94 113.493 369.86 118.23 374.878 121.553C379.895 124.877 385.786 126.64 391.804 126.618C395.812 126.61 399.779 125.811 403.477 124.264C407.174 122.718 410.529 120.455 413.349 117.607C416.169 114.759 418.397 111.381 419.906 107.668C421.416 103.956 422.175 99.9809 422.142 95.9731Z" fill="black"/>
<path d="M492.485 53.7951L487.276 66.833C485.036 65.8803 482.633 65.3694 480.2 65.3286C467.19 65.3286 457.3 77.2521 457.3 93.1873V139.516H441.95V52.04H457.188V65.635C461.869 56.3302 469.307 50.3685 479.726 50.3685C484.214 50.3086 488.631 51.4948 492.485 53.7951Z" fill="black"/>
<path d="M574.028 52.1236V139.6H558.762V127.147C554.743 131.755 549.753 135.414 544.151 137.861C538.548 140.308 532.473 141.483 526.362 141.299C502.905 141.299 482.624 120.99 482.624 95.8617C482.624 70.7331 502.905 50.4521 526.362 50.4521C532.473 50.2686 538.548 51.4428 544.151 53.89C549.753 56.3372 554.743 59.9964 558.762 64.6042V52.1236H574.028ZM558.762 95.8617C558.723 89.843 556.901 83.9708 553.527 78.9868C550.153 74.0028 545.378 70.1305 539.804 67.859C534.23 65.5876 528.108 65.0189 522.212 66.2247C516.315 67.4306 510.908 70.3571 506.673 74.6343C502.439 78.9115 499.567 84.3477 498.421 90.2563C497.274 96.1648 497.904 102.281 500.231 107.831C502.559 113.382 506.479 118.118 511.497 121.442C516.514 124.766 522.405 126.528 528.423 126.506C532.426 126.514 536.39 125.728 540.087 124.193C543.784 122.659 547.14 120.407 549.962 117.568C552.783 114.729 555.013 111.358 556.524 107.652C558.034 103.945 558.795 99.9756 558.762 95.9731V95.8617Z" fill="black"/>
<path d="M124.361 26.3264H102.074V48.6134H124.361V26.3264Z" fill="#7000FF"/>
</g>
<defs>
<clipPath id="clip0_1015_2839">
<rect width="574" height="184.285" fill="white"/>
</clipPath>
</defs>
</svg>
